<?xml version="1.0" encoding="iso-8859-1"?>
<!-- Uploaded to: SVG Repo, www.svgrepo.com, Generator: SVG Repo Mixer Tools -->
<svg height="800px" width="800px" version="1.1" id="Layer_1" xmlns="http://www.w3.org/2000/svg" xmlns:xlink="http://www.w3.org/1999/xlink" 
	 viewBox="0 0 512 512" xml:space="preserve">
<circle style="fill:#E05B49;" cx="256" cy="256" r="256"/>
<path style="opacity:0.1;enable-background:new    ;" d="M503.68,320.901L321.072,138.293c-1.813-2.08-3.787-4-5.813-5.813
	l-0.587-0.533c-14.667-13.227-33.76-21.493-54.72-22.4c-1.333-0.053-2.613-0.213-3.947-0.213c-1.333,0-2.613,0.16-3.947,0.213
	c-46.667,2.08-83.947,40.48-83.947,87.68v117.547c0,24.427,9.973,46.507,26.08,62.453l126.533,126.501
	C410.032,480.459,480.347,410.181,503.68,320.901z"/>
<path style="fill:#EBF0F3;" d="M168.112,197.221v33.211h83.952V109.531C205.365,111.605,168.112,150.011,168.112,197.221z"/>
<path style="fill:#E1E6E9;" d="M259.936,109.531v120.901h83.952v-33.211C343.888,150.011,306.635,111.605,259.936,109.531z"/>
<path style="fill:#64798A;" d="M259.936,109.531c-1.312-0.059-2.608-0.197-3.936-0.197s-2.624,0.139-3.936,0.197l0,0v120.901h7.872
	L259.936,109.531L259.936,109.531z"/>
<path style="fill:#FFFFFF;" d="M168.112,230.432v84.347c0,48.539,39.349,87.888,87.888,87.888s87.888-39.349,87.888-87.888v-84.347
	H168.112z"/>
<ellipse style="fill:#E1E6E9;" cx="256" cy="351.829" rx="23.728" ry="11.611"/>
<ellipse style="fill:#3A556A;" cx="256" cy="170.667" rx="16.235" ry="28.827"/>
</svg>