<?xml version="1.0" encoding="iso-8859-1"?>
<!-- Uploaded to: SVG Repo, www.svgrepo.com, Generator: SVG Repo Mixer Tools -->
<svg version="1.1" id="Layer_1" xmlns="http://www.w3.org/2000/svg" xmlns:xlink="http://www.w3.org/1999/xlink" 
	 viewBox="0 0 512 512" xml:space="preserve">
<circle style="fill:#45B39C;" cx="256" cy="256" r="256"/>
<path style="opacity:0.1;enable-background:new    ;" d="M367.28,109.339H144.773c-7.36,0-13.28,5.92-13.28,13.227v266.88
	c0,3.68,1.547,7.04,4,9.44l112.917,112.923c2.528,0.075,5.045,0.192,7.589,0.192c141.387,0,256-114.613,256-256
	c0-2.539-0.117-5.045-0.192-7.568L376.4,113.019C374.053,110.725,370.8,109.339,367.28,109.339z"/>
<path style="fill:#E1E6E9;" d="M367.253,109.333H144.747c-7.312,0-13.243,5.931-13.243,13.243v266.848
	c0,7.312,5.931,13.243,13.243,13.243h222.507c7.312,0,13.243-5.931,13.243-13.243V122.576
	C380.496,115.264,374.565,109.333,367.253,109.333z"/>
<rect x="152.837" y="130.667" style="fill:#64798A;" width="206.325" height="229.285"/>
<polygon style="fill:#3A556A;" points="152.837,359.952 359.163,130.667 359.163,359.952 "/>
<g>
	<circle style="fill:#64798A;" cx="256" cy="120.32" r="5.781"/>
	<path style="fill:#64798A;" d="M256,395.493c-8.235,0-14.939-6.704-14.939-14.939s6.704-14.939,14.939-14.939
		c8.235,0,14.939,6.704,14.939,14.939C270.939,388.789,264.235,395.493,256,395.493z M256,370.949c-5.296,0-9.605,4.309-9.605,9.605
		c0,5.296,4.309,9.605,9.605,9.605c5.296,0,9.605-4.309,9.605-9.605S261.296,370.949,256,370.949z"/>
</g>
<circle style="fill:#3A556A;" cx="256" cy="120.32" r="2.288"/>
<g>
	<rect x="176.48" y="163.755" style="fill:#FFFFFF;" width="159.077" height="5.333"/>
	<rect x="176.48" y="192.533" style="fill:#FFFFFF;" width="159.077" height="5.333"/>
	<rect x="176.48" y="221.296" style="fill:#FFFFFF;" width="159.077" height="5.333"/>
	<rect x="176.48" y="250.069" style="fill:#FFFFFF;" width="159.077" height="5.333"/>
	<rect x="176.48" y="278.827" style="fill:#FFFFFF;" width="159.077" height="5.333"/>
	<rect x="176.48" y="307.611" style="fill:#FFFFFF;" width="113.307" height="5.333"/>
</g>
</svg>